<?xml version="1.0" encoding="utf-8"?>
<svg xmlns="http://www.w3.org/2000/svg" xmlns:xlink="http://www.w3.org/1999/xlink">
    <symbol viewBox="0 0 20 20" id="email">
        <path d="M18.4025 3H1.59751C1.43905 3.00018 1.28715 3.06086 1.17513 3.16872C1.06311 3.27658 1.00012 3.42282 1 3.57533V4.73273C1 4.78605 1.06008 4.84725 1.10917 4.872L9.94226 9.72817C9.96488 9.74062 9.99054 9.74707 10.0166 9.74685C10.0432 9.74692 10.0694 9.74008 10.0923 9.72705L18.6585 4.87673C18.7066 4.85085 18.8343 4.78245 18.8822 4.75095C18.9402 4.71293 19 4.6785 19 4.61033V3.5751C18.9998 3.42263 18.9368 3.27645 18.8248 3.16864C18.7128 3.06083 18.5609 3.00018 18.4025 3Z" fill="#2B7AF1"/>
        <path d="M18.9254 6.47777C18.9024 6.46515 18.8763 6.45859 18.8498 6.45874C18.8234 6.4589 18.7974 6.46578 18.7746 6.47867L13.927 9.2239C13.9077 9.23473 13.8911 9.24961 13.8786 9.26744C13.8661 9.28526 13.8579 9.30557 13.8546 9.32686C13.8514 9.34815 13.8531 9.36987 13.8598 9.39041C13.8664 9.41095 13.8778 9.42979 13.8931 9.44552L18.7414 14.4758C18.7553 14.4904 18.7722 14.502 18.7909 14.5099C18.8097 14.5178 18.83 14.5218 18.8506 14.5217C18.8901 14.5217 18.9281 14.5065 18.9561 14.4796C18.9841 14.4526 18.9999 14.4161 18.9999 14.378V6.60265C19 6.57735 18.9932 6.55248 18.9801 6.53056C18.967 6.50863 18.9481 6.49042 18.9254 6.47777Z" fill="#2B7AF1"/>
        <path d="M12.53 10.1457C12.507 10.1216 12.4761 10.1058 12.4425 10.1009C12.4088 10.0961 12.3745 10.1025 12.3451 10.1191L10.4021 11.2196C10.2882 11.2829 10.1592 11.3166 10.0278 11.3175C9.89627 11.3183 9.76683 11.2862 9.65214 11.2243L7.94214 10.2841C7.91453 10.2689 7.88264 10.2626 7.85108 10.2661C7.81951 10.2696 7.78992 10.2827 7.76658 10.3034L1.27303 16.1008C1.256 16.1161 1.24293 16.135 1.23486 16.156C1.22678 16.1771 1.22392 16.1997 1.22651 16.2219C1.2291 16.2442 1.23706 16.2656 1.24977 16.2844C1.26247 16.3032 1.27956 16.3189 1.29968 16.3303C1.40066 16.3874 1.49814 16.4146 1.59726 16.4146H18.2304C18.2595 16.4147 18.288 16.4065 18.3123 16.3911C18.3366 16.3757 18.3557 16.3538 18.3672 16.328C18.3788 16.3024 18.3824 16.2741 18.3775 16.2465C18.3726 16.219 18.3594 16.1934 18.3396 16.173L12.53 10.1457Z" fill="#2B7AF1"/>
        <path d="M6.33782 9.61787C6.35502 9.60257 6.36824 9.58358 6.37641 9.56245C6.38458 9.54132 6.38747 9.51864 6.38486 9.49624C6.38224 9.47383 6.37418 9.45234 6.36134 9.43348C6.3485 9.41463 6.33124 9.39894 6.31094 9.38769L1.22278 6.59049C1.20007 6.57809 1.17438 6.57163 1.14827 6.57178C1.12216 6.57193 1.09654 6.57867 1.07399 6.59134C1.05143 6.604 1.03273 6.62214 1.01975 6.64395C1.00676 6.66576 0.999954 6.69046 1 6.71559V14.0551C0.999838 14.0831 1.00822 14.1106 1.0241 14.1341C1.03999 14.1576 1.06268 14.1761 1.08938 14.1873C1.11607 14.1985 1.1456 14.2019 1.17429 14.1971C1.20299 14.1924 1.2296 14.1796 1.25083 14.1604L6.33782 9.61787Z" fill="#2B7AF1"/>
    </symbol>
    <symbol viewBox="0 0 20 20" id="phone">
        <path d="M12.8396 13.55L14.2396 12.15C14.4281 11.9638 14.6667 11.8363 14.9263 11.7831C15.1859 11.7298 15.4554 11.7531 15.7021 11.85L17.4083 12.5313C17.6576 12.6324 17.8713 12.8051 18.0226 13.0276C18.1738 13.25 18.2559 13.5123 18.2583 13.7813V16.9063C18.2569 17.0893 18.2184 17.2701 18.1452 17.4378C18.0721 17.6055 17.9657 17.7567 17.8326 17.8823C17.6995 18.0078 17.5423 18.1051 17.3706 18.1683C17.1988 18.2315 17.0161 18.2593 16.8333 18.25C4.87707 17.5063 2.46457 7.38128 2.00832 3.50628C1.98714 3.31599 2.0065 3.12337 2.0651 2.94109C2.12371 2.75882 2.22025 2.59102 2.34837 2.44874C2.47648 2.30645 2.63327 2.1929 2.80842 2.11557C2.98357 2.03823 3.17311 1.99885 3.36457 2.00003H6.38332C6.6527 2.00082 6.91569 2.08219 7.13845 2.23367C7.3612 2.38515 7.53355 2.5998 7.63332 2.85003L8.31457 4.55628C8.41473 4.80194 8.44028 5.07168 8.38804 5.33178C8.3358 5.59189 8.20807 5.83084 8.02082 6.01878L6.62082 7.41878C6.62082 7.41878 7.42707 12.875 12.8396 13.55Z" fill="#2B7AF1"/>
    </symbol>
    <symbol viewBox="0 0 16 20" id="location">
        <path d="M8.00001 0.375C5.99503 0.377365 4.07286 1.17489 2.65513 2.59262C1.23739 4.01035 0.439873 5.93253 0.437508 7.9375C0.435107 9.57597 0.970307 11.17 1.96101 12.475C1.96101 12.475 2.16726 12.7466 2.20095 12.7858L8.00001 19.625L13.8018 12.7823C13.8321 12.7459 14.039 12.475 14.039 12.475L14.0397 12.4729C15.0299 11.1685 15.5649 9.57521 15.5625 7.9375C15.5601 5.93253 14.7626 4.01035 13.3449 2.59262C11.9272 1.17489 10.005 0.377365 8.00001 0.375ZM10.475 11.375L8.00001 9.79994L5.52501 11.375L5.93751 8.57412L3.87501 6.68144L6.76251 6.33288L8.00001 3.8125L9.31451 6.33356L12.125 6.68144L10.0625 8.57412L10.475 11.375Z" fill="#F73E3E"/>
    </symbol>
    <symbol viewBox="0 0 14 18" id="contacts_location">
        <path d="M7.00001 0.249954C5.1773 0.252105 3.42987 0.977123 2.14102 2.26597C0.852176 3.55482 0.127158 5.30225 0.125007 7.12495C0.122824 8.61447 0.60937 10.0636 1.51001 11.25C1.51001 11.25 1.69751 11.4968 1.72813 11.5325L7.00001 17.75L12.2744 11.5293C12.3019 11.4962 12.49 11.25 12.49 11.25L12.4906 11.2481C13.3908 10.0622 13.8771 8.61379 13.875 7.12495C13.8729 5.30225 13.1478 3.55482 11.859 2.26597C10.5701 0.977123 8.82271 0.252105 7.00001 0.249954ZM9.25001 10.25L7.00001 8.81808L4.75001 10.25L5.12501 7.7037L3.25001 5.98308L5.87501 5.6662L7.00001 3.37495L8.19501 5.66683L10.75 5.98308L8.87501 7.7037L9.25001 10.25Z" fill="white"/>
    </symbol>
    <symbol viewBox="0 0 14 18" id="contacts_location">
        <path d="M7.00001 0.249954C5.1773 0.252105 3.42987 0.977123 2.14102 2.26597C0.852176 3.55482 0.127158 5.30225 0.125007 7.12495C0.122824 8.61447 0.60937 10.0636 1.51001 11.25C1.51001 11.25 1.69751 11.4968 1.72813 11.5325L7.00001 17.75L12.2744 11.5293C12.3019 11.4962 12.49 11.25 12.49 11.25L12.4906 11.2481C13.3908 10.0622 13.8771 8.61379 13.875 7.12495C13.8729 5.30225 13.1478 3.55482 11.859 2.26597C10.5701 0.977123 8.82271 0.252105 7.00001 0.249954ZM9.25001 10.25L7.00001 8.81808L4.75001 10.25L5.12501 7.7037L3.25001 5.98308L5.87501 5.6662L7.00001 3.37495L8.19501 5.66683L10.75 5.98308L8.87501 7.7037L9.25001 10.25Z" fill="white"/>
    </symbol>
    <symbol viewBox="0 0 20 21" id="contacts_email">
        <path d="M18.4025 2.99995H1.59751C1.43905 3.00013 1.28715 3.06081 1.17513 3.16867C1.06311 3.27654 1.00012 3.42277 1 3.57528V4.73268C1 4.786 1.06008 4.8472 1.10917 4.87195L9.94226 9.72813C9.96488 9.74057 9.99054 9.74702 10.0166 9.7468C10.0432 9.74687 10.0694 9.74004 10.0923 9.727L18.6585 4.87668C18.7066 4.8508 18.8343 4.7824 18.8822 4.7509C18.9402 4.71288 19 4.67845 19 4.61028V3.57505C18.9998 3.42258 18.9368 3.27641 18.8248 3.16859C18.7128 3.06078 18.5609 3.00013 18.4025 2.99995Z" fill="white"/>
        <path d="M18.9254 6.47776C18.9024 6.46513 18.8763 6.45857 18.8498 6.45873C18.8234 6.45889 18.7974 6.46576 18.7746 6.47866L13.927 9.22388C13.9077 9.23471 13.8911 9.2496 13.8786 9.26742C13.8661 9.28524 13.8579 9.30555 13.8546 9.32684C13.8514 9.34813 13.8531 9.36985 13.8598 9.3904C13.8664 9.41094 13.8778 9.42977 13.8931 9.44551L18.7414 14.4758C18.7553 14.4904 18.7722 14.5019 18.7909 14.5098C18.8097 14.5177 18.83 14.5218 18.8506 14.5217C18.8901 14.5217 18.9281 14.5065 18.9561 14.4796C18.9841 14.4526 18.9999 14.4161 18.9999 14.378V6.60263C19 6.57734 18.9932 6.55247 18.9801 6.53054C18.967 6.50861 18.9481 6.4904 18.9254 6.47776Z" fill="white"/>
        <path d="M12.53 10.1456C12.507 10.1215 12.4761 10.1057 12.4425 10.1009C12.4088 10.0961 12.3745 10.1025 12.3451 10.1191L10.4021 11.2196C10.2882 11.2829 10.1592 11.3166 10.0278 11.3174C9.89627 11.3183 9.76683 11.2862 9.65214 11.2243L7.94214 10.284C7.91453 10.2689 7.88264 10.2626 7.85108 10.2661C7.81951 10.2696 7.78992 10.2826 7.76658 10.3034L1.27303 16.1007C1.256 16.116 1.24293 16.135 1.23486 16.156C1.22678 16.177 1.22392 16.1996 1.22651 16.2219C1.2291 16.2442 1.23706 16.2656 1.24977 16.2844C1.26247 16.3032 1.27956 16.3189 1.29968 16.3302C1.40066 16.3874 1.49814 16.4146 1.59726 16.4146H18.2304C18.2595 16.4146 18.288 16.4065 18.3123 16.3911C18.3366 16.3757 18.3557 16.3537 18.3672 16.328C18.3788 16.3024 18.3824 16.274 18.3775 16.2465C18.3726 16.2189 18.3594 16.1933 18.3396 16.1729L12.53 10.1456Z" fill="white"/>
        <path d="M6.33782 9.6177C6.35502 9.6024 6.36824 9.58341 6.37641 9.56229C6.38458 9.54116 6.38747 9.51847 6.38486 9.49607C6.38224 9.47367 6.37418 9.45217 6.36134 9.43331C6.3485 9.41446 6.33124 9.39877 6.31094 9.38753L1.22278 6.59033C1.20007 6.57792 1.17438 6.57146 1.14827 6.57161C1.12216 6.57176 1.09654 6.5785 1.07399 6.59117C1.05143 6.60383 1.03273 6.62198 1.01975 6.64378C1.00676 6.66559 0.999954 6.69029 1 6.71543V14.0549C0.999838 14.083 1.00822 14.1104 1.0241 14.1339C1.03999 14.1574 1.06268 14.1759 1.08938 14.1871C1.11607 14.1983 1.1456 14.2017 1.17429 14.197C1.20299 14.1922 1.2296 14.1794 1.25083 14.1602L6.33782 9.6177Z" fill="white"/>
    </symbol>
    <symbol viewBox="0 0 14 18" id="contacts_phone">
        <path d="M11.7063 12.425L13.1063 11.025C13.2948 10.8387 13.5334 10.7113 13.793 10.658C14.0526 10.6048 14.3221 10.628 14.5688 10.725L16.275 11.4062C16.5243 11.5074 16.738 11.6801 16.8893 11.9025C17.0405 12.125 17.1226 12.3872 17.125 12.6562V15.7812C17.1236 15.9642 17.0851 16.145 17.0119 16.3127C16.9388 16.4805 16.8324 16.6316 16.6993 16.7572C16.5662 16.8827 16.409 16.98 16.2373 17.0432C16.0655 17.1064 15.8828 17.1342 15.7 17.125C3.74377 16.3812 1.33127 6.25621 0.875023 2.38121C0.853843 2.19092 0.873194 1.99831 0.931803 1.81603C0.990411 1.63376 1.08695 1.46596 1.21506 1.32367C1.34318 1.18139 1.49997 1.06784 1.67512 0.990504C1.85027 0.913166 2.03981 0.873789 2.23127 0.874965H5.25002C5.5194 0.875762 5.78239 0.957132 6.00514 1.10861C6.2279 1.26008 6.40025 1.47474 6.50002 1.72496L7.18127 3.43121C7.28143 3.67688 7.30698 3.94662 7.25474 4.20672C7.2025 4.46683 7.07477 4.70577 6.88752 4.89371L5.48752 6.29371C5.48752 6.29371 6.29377 11.75 11.7063 12.425Z" fill="white"/>
    </symbol>
    <symbol viewBox="0 0 17 18" id="instagram">
        <path d="M14.5808 0.354492H2.41923C1.04615 0.354492 0 1.40065 0 2.77372V14.9353C0 16.3083 1.04615 17.3545 2.41923 17.3545H14.5808C15.9538 17.3545 17 16.3083 17 14.9353V2.77372C17 1.40065 15.9538 0.354492 14.5808 0.354492ZM8.5 13.9545C11.3115 13.9545 13.6 11.7314 13.6 9.05065C13.6 8.59295 13.5346 8.06988 13.4038 7.67757H14.8423V14.6083C14.8423 14.9353 14.5808 15.2622 14.1885 15.2622H2.81154C2.48462 15.2622 2.15769 15.0006 2.15769 14.6083V7.61218H3.66154C3.53077 8.06988 3.46539 8.52757 3.46539 8.98526C3.4 11.7314 5.68846 13.9545 8.5 13.9545ZM8.5 11.993C6.66923 11.993 5.23077 10.5545 5.23077 8.78911C5.23077 7.02372 6.66923 5.58526 8.5 5.58526C10.3308 5.58526 11.7692 7.02372 11.7692 8.78911C11.7692 10.6199 10.3308 11.993 8.5 11.993ZM14.7769 4.9968C14.7769 5.38911 14.45 5.71603 14.0577 5.71603H12.2269C11.8346 5.71603 11.5077 5.38911 11.5077 4.9968V3.23142C11.5077 2.83911 11.8346 2.51218 12.2269 2.51218H14.0577C14.45 2.51218 14.7769 2.83911 14.7769 3.23142V4.9968Z" fill="white"/>
    </symbol>
    <symbol viewBox="0 0 21 13" id="vk">
        <path d="M20.806 11.4698C20.806 11.3868 20.723 11.3868 20.723 11.3038C20.3909 10.6396 19.6437 9.80936 18.6474 8.8961C18.1493 8.48099 17.9002 8.14889 17.7342 7.98285C17.4851 7.65076 17.4851 7.40169 17.5681 7.0696C17.6512 6.82053 17.9832 6.40541 18.5644 5.6582C18.8965 5.24309 19.0625 4.99403 19.3116 4.74496C20.5569 3.0845 21.1381 2.00519 20.972 1.50706L20.889 1.42404C20.806 1.34102 20.723 1.258 20.5569 1.258C20.3909 1.17497 20.1418 1.17497 19.8928 1.258H16.7379C16.6549 1.258 16.6549 1.258 16.4888 1.258C16.4058 1.258 16.3228 1.258 16.3228 1.258H16.2398H16.1567L16.0737 1.34101C15.9907 1.42404 15.9907 1.42403 15.9907 1.50706C15.6586 2.42031 15.2435 3.16751 14.8284 3.99774C14.5793 4.41286 14.3302 4.82798 14.0812 5.16007C13.8321 5.49216 13.666 5.74123 13.5 5.90727C13.3339 6.07332 13.1679 6.15634 13.0849 6.32239C13.0018 6.40541 12.8358 6.48844 12.8358 6.40542C12.7528 6.40542 12.6698 6.40541 12.6698 6.32239C12.5867 6.23937 12.5037 6.15634 12.4207 6.07332C12.3377 5.99029 12.3377 5.82425 12.2546 5.6582C12.2546 5.49216 12.2546 5.32611 12.2546 5.24309C12.2546 5.16006 12.2546 4.911 12.2546 4.74496C12.2546 4.49589 12.2546 4.32984 12.2546 4.24681C12.2546 3.99775 12.2546 3.66566 12.2546 3.33357C12.2546 3.00148 12.2546 2.7524 12.2546 2.58636C12.2546 2.42031 12.2546 2.17124 12.2546 2.0052C12.2546 1.75613 12.2546 1.59008 12.2546 1.50706C12.2546 1.42403 12.1716 1.25799 12.1716 1.17497C12.0886 1.09195 12.0056 1.00892 11.9226 0.925898C11.8395 0.842875 11.6735 0.842877 11.5905 0.759854C11.1754 0.676831 10.6772 0.593811 10.0961 0.593811C8.7677 0.593811 7.85444 0.676836 7.52235 0.842882C7.3563 0.925905 7.19026 1.00892 7.10723 1.17497C6.94119 1.34101 6.94118 1.42404 7.02421 1.42404C7.43932 1.50706 7.77142 1.6731 7.93746 1.92217L8.02049 2.08823C8.10351 2.17125 8.1035 2.33729 8.18652 2.58636C8.26955 2.83543 8.26955 3.08449 8.26955 3.41659C8.26955 3.91472 8.26955 4.41287 8.26955 4.74496C8.26955 5.16007 8.18652 5.40913 8.18652 5.6582C8.18652 5.90727 8.10351 6.07332 8.02049 6.15634C7.93747 6.32239 7.93746 6.40542 7.85444 6.40542C7.85444 6.40542 7.85443 6.48843 7.77141 6.48843C7.68838 6.48843 7.60537 6.57146 7.43932 6.57146C7.3563 6.57146 7.19026 6.48844 7.10723 6.40542C6.94119 6.32239 6.77514 6.15635 6.69212 5.9903C6.52607 5.82426 6.36002 5.57518 6.19398 5.24309C6.02793 4.911 5.77885 4.57891 5.61281 4.08077L5.44678 3.74868C5.36375 3.58264 5.19771 3.25054 5.03166 2.83543C4.86562 2.42031 4.69956 2.08823 4.53352 1.67311C4.4505 1.50707 4.36748 1.42404 4.28446 1.34101H4.20143C4.20143 1.34101 4.1184 1.258 4.03538 1.258C3.95235 1.258 3.86934 1.17497 3.78632 1.17497H0.797487C0.465395 1.17497 0.299352 1.25799 0.216329 1.34101L0.133301 1.42404C0.133301 1.42404 0.133301 1.50706 0.133301 1.59008C0.133301 1.67311 0.133306 1.75612 0.216329 1.92217C0.631443 2.91845 1.12958 3.91473 1.62772 4.911C2.12585 5.82425 2.624 6.65448 2.95609 7.23565C3.3712 7.81681 3.70329 8.39797 4.1184 8.8961C4.53352 9.39424 4.78258 9.72633 4.86561 9.89238C5.03165 10.0584 5.11467 10.1414 5.19769 10.2245L5.44678 10.4735C5.61282 10.6396 5.86189 10.8887 6.19398 11.1377C6.52607 11.3868 6.94118 11.6359 7.35629 11.8849C7.77141 12.134 8.26955 12.3 8.76769 12.4661C9.34885 12.6321 9.84699 12.7152 10.3451 12.6321H11.5905C11.8395 12.6321 12.0056 12.5491 12.1716 12.3831L12.2546 12.3C12.2546 12.217 12.3377 12.217 12.3377 12.134C12.3377 12.051 12.3377 11.968 12.3377 11.8019C12.3377 11.4698 12.3377 11.2207 12.4207 10.9717C12.5037 10.7226 12.5037 10.5566 12.5868 10.3905C12.6698 10.2245 12.7528 10.1414 12.8358 10.0584C12.9188 9.9754 13.0019 9.89238 13.0019 9.89238H13.0849C13.2509 9.80935 13.5 9.89237 13.666 10.0584C13.9151 10.2245 14.1642 10.4735 14.3302 10.7226C14.4963 10.9717 14.7453 11.2207 15.0774 11.5528C15.4095 11.8849 15.6586 12.134 15.8246 12.217L16.0737 12.3831C16.2397 12.4661 16.4058 12.5491 16.6549 12.6321C16.9039 12.7152 17.07 12.7152 17.236 12.7152L20.0588 12.6321C20.3079 12.6321 20.5569 12.5491 20.723 12.4661C20.889 12.3831 20.972 12.3 20.972 12.134C20.972 12.051 20.972 11.8849 20.972 11.8019C20.806 11.6359 20.806 11.5528 20.806 11.4698Z" fill="white"/>
    </symbol>
    <symbol viewBox="0 0 20 20" id="footer_email">
        <path d="M18.4025 3H1.59751C1.43905 3.00018 1.28715 3.06086 1.17513 3.16872C1.06311 3.27658 1.00012 3.42282 1 3.57533V4.73273C1 4.78605 1.06008 4.84725 1.10917 4.872L9.94226 9.72817C9.96488 9.74062 9.99054 9.74707 10.0166 9.74685C10.0432 9.74692 10.0694 9.74008 10.0923 9.72705L18.6585 4.87673C18.7066 4.85085 18.8343 4.78245 18.8822 4.75095C18.9402 4.71293 19 4.6785 19 4.61033V3.5751C18.9998 3.42263 18.9368 3.27645 18.8248 3.16864C18.7128 3.06083 18.5609 3.00018 18.4025 3Z" fill="white"/>
        <path d="M18.9254 6.47777C18.9024 6.46515 18.8763 6.45859 18.8498 6.45874C18.8234 6.4589 18.7974 6.46578 18.7746 6.47867L13.927 9.2239C13.9077 9.23473 13.8911 9.24961 13.8786 9.26744C13.8661 9.28526 13.8579 9.30557 13.8546 9.32686C13.8514 9.34815 13.8531 9.36987 13.8598 9.39041C13.8664 9.41095 13.8778 9.42979 13.8931 9.44552L18.7414 14.4758C18.7553 14.4904 18.7722 14.502 18.7909 14.5099C18.8097 14.5178 18.83 14.5218 18.8506 14.5217C18.8901 14.5217 18.9281 14.5065 18.9561 14.4796C18.9841 14.4526 18.9999 14.4161 18.9999 14.378V6.60265C19 6.57735 18.9932 6.55248 18.9801 6.53056C18.967 6.50863 18.9481 6.49042 18.9254 6.47777Z" fill="white"/>
        <path d="M12.53 10.1457C12.507 10.1216 12.4761 10.1058 12.4425 10.1009C12.4088 10.0961 12.3745 10.1025 12.3451 10.1191L10.4021 11.2196C10.2882 11.2829 10.1592 11.3166 10.0278 11.3175C9.89627 11.3183 9.76683 11.2862 9.65214 11.2243L7.94214 10.2841C7.91453 10.2689 7.88264 10.2626 7.85108 10.2661C7.81951 10.2696 7.78992 10.2827 7.76658 10.3034L1.27303 16.1008C1.256 16.1161 1.24293 16.135 1.23486 16.156C1.22678 16.1771 1.22392 16.1997 1.22651 16.2219C1.2291 16.2442 1.23706 16.2656 1.24977 16.2844C1.26247 16.3032 1.27956 16.3189 1.29968 16.3303C1.40066 16.3874 1.49814 16.4146 1.59726 16.4146H18.2304C18.2595 16.4147 18.288 16.4065 18.3123 16.3911C18.3366 16.3757 18.3557 16.3538 18.3672 16.328C18.3788 16.3024 18.3824 16.2741 18.3775 16.2465C18.3726 16.219 18.3594 16.1934 18.3396 16.173L12.53 10.1457Z" fill="white"/>
        <path d="M6.33782 9.61787C6.35502 9.60257 6.36824 9.58358 6.37641 9.56245C6.38458 9.54132 6.38747 9.51864 6.38486 9.49624C6.38224 9.47383 6.37418 9.45234 6.36134 9.43348C6.3485 9.41463 6.33124 9.39894 6.31094 9.38769L1.22278 6.59049C1.20007 6.57809 1.17438 6.57163 1.14827 6.57178C1.12216 6.57193 1.09654 6.57867 1.07399 6.59134C1.05143 6.604 1.03273 6.62214 1.01975 6.64395C1.00676 6.66576 0.999954 6.69046 1 6.71559V14.0551C0.999838 14.0831 1.00822 14.1106 1.0241 14.1341C1.03999 14.1576 1.06268 14.1761 1.08938 14.1873C1.11607 14.1985 1.1456 14.2019 1.17429 14.1971C1.20299 14.1924 1.2296 14.1796 1.25083 14.1604L6.33782 9.61787Z" fill="white"/>
    </symbol>
    <symbol viewBox="0 0 20 20" id="footer_phone">
        <path d="M12.7063 13.425L14.1063 12.025C14.2948 11.8388 14.5334 11.7113 14.793 11.6581C15.0526 11.6048 15.3221 11.6281 15.5688 11.725L17.275 12.4063C17.5243 12.5074 17.738 12.6801 17.8893 12.9026C18.0405 13.125 18.1226 13.3873 18.125 13.6563V16.7813C18.1236 16.9643 18.0851 17.1451 18.0119 17.3128C17.9388 17.4805 17.8324 17.6317 17.6993 17.7573C17.5662 17.8828 17.409 17.9801 17.2373 18.0433C17.0655 18.1065 16.8828 18.1343 16.7 18.125C4.74377 17.3813 2.33127 7.25628 1.87502 3.38128C1.85384 3.19099 1.87319 2.99837 1.9318 2.81609C1.99041 2.63382 2.08695 2.46602 2.21506 2.32374C2.34318 2.18145 2.49997 2.0679 2.67512 1.99057C2.85027 1.91323 3.03981 1.87385 3.23127 1.87503H6.25002C6.5194 1.87582 6.78239 1.95719 7.00514 2.10867C7.2279 2.26015 7.40025 2.4748 7.50002 2.72503L8.18127 4.43128C8.28143 4.67694 8.30698 4.94668 8.25474 5.20678C8.2025 5.46689 8.07477 5.70584 7.88752 5.89378L6.48752 7.29378C6.48752 7.29378 7.29377 12.75 12.7063 13.425Z" fill="white"/>
    </symbol>
    <symbol viewBox="0 0 20 18" id="footer_telegram">
        <path d="M0.350701 8.37432L4.9488 10.0889L6.74126 15.8559C6.8192 16.2456 7.2868 16.3235 7.59854 16.0897L10.1703 13.9855C10.4041 13.7517 10.7938 13.7517 11.1055 13.9855L15.7036 17.3367C16.0154 17.5705 16.483 17.4146 16.5609 17.0249L19.99 0.6589C20.0679 0.269232 19.6782 -0.120432 19.2886 0.0354347L0.350701 7.36119C-0.1169 7.51706 -0.1169 8.21846 0.350701 8.37432ZM6.50747 9.23159L15.5477 3.69831C15.7036 3.62038 15.8595 3.85418 15.7036 3.93211L8.29993 10.8682C8.06613 11.102 7.83233 11.4137 7.83233 11.8034L7.59854 13.6738C7.59854 13.9076 7.20886 13.9855 7.13093 13.6738L6.19572 10.2447C5.96192 9.85506 6.1178 9.38746 6.50747 9.23159Z" fill="white"/>
    </symbol>
    <symbol viewBox="0 0 17 17" id="footer_fb">
        <path d="M17 2.81889C17 1.32148 15.6788 0.000244141 14.1813 0.000244141H2.81865C1.32124 0.000244141 0 1.32148 0 2.81889V14.1816C0 15.679 1.32124 17.0002 2.81865 17.0002H8.54404V10.5702H6.43005V7.75154H8.54404V6.60646C8.54404 4.66864 9.95337 2.99506 11.715 2.99506H14.0052V5.81371H11.715C11.4508 5.81371 11.1865 6.07796 11.1865 6.60646V7.75154H14.0052V10.5702H11.1865V17.0002H14.1813C15.6788 17.0002 17 15.679 17 14.1816V2.81889Z" fill="white"/>
    </symbol>
    <symbol viewBox="0 0 21 13" id="footer_vk">
        <path d="M20.806 11.115C20.806 11.032 20.723 11.032 20.723 10.949C20.3909 10.2848 19.6437 9.45456 18.6474 8.54131C18.1493 8.12619 17.9002 7.7941 17.7342 7.62805C17.4851 7.29596 17.4851 7.0469 17.5681 6.7148C17.6511 6.46574 17.9832 6.05061 18.5644 5.3034C18.8965 4.88829 19.0625 4.63923 19.3116 4.39016C20.5569 2.7297 21.1381 1.6504 20.972 1.15226L20.889 1.06924C20.806 0.98622 20.723 0.9032 20.5569 0.9032C20.3909 0.820177 20.1418 0.820177 19.8928 0.9032H16.7379C16.6549 0.9032 16.6549 0.9032 16.4888 0.9032C16.4058 0.9032 16.3228 0.9032 16.3228 0.9032H16.2398H16.1567L16.0737 0.986215C15.9907 1.06924 15.9907 1.06924 15.9907 1.15226C15.6586 2.06551 15.2435 2.81272 14.8284 3.64295C14.5793 4.05806 14.3302 4.47318 14.0812 4.80527C13.8321 5.13737 13.666 5.38643 13.5 5.55248C13.3339 5.71852 13.1679 5.80154 13.0849 5.96759C13.0018 6.05061 12.8358 6.13364 12.8358 6.05062C12.7528 6.05062 12.6698 6.05061 12.6698 5.96759C12.5867 5.88457 12.5037 5.80154 12.4207 5.71852C12.3377 5.6355 12.3377 5.46945 12.2546 5.3034C12.2546 5.13736 12.2546 4.97131 12.2546 4.88829C12.2546 4.80527 12.2546 4.55621 12.2546 4.39016C12.2546 4.14109 12.2546 3.97504 12.2546 3.89202C12.2546 3.64295 12.2546 3.31086 12.2546 2.97877C12.2546 2.64668 12.2546 2.3976 12.2546 2.23156C12.2546 2.06551 12.2546 1.81645 12.2546 1.6504C12.2546 1.40133 12.2546 1.23528 12.2546 1.15226C12.2546 1.06924 12.1716 0.903195 12.1716 0.820172C12.0886 0.737149 12.0056 0.654123 11.9226 0.5711C11.8395 0.488077 11.6735 0.48808 11.5905 0.405057C11.1754 0.322034 10.6772 0.239014 10.0961 0.239014C8.7677 0.239014 7.85444 0.322039 7.52235 0.488085C7.3563 0.571108 7.19026 0.654126 7.10723 0.820172C6.94119 0.986217 6.94118 1.06924 7.02421 1.06924C7.43932 1.15227 7.77142 1.3183 7.93746 1.56737L8.02049 1.73343C8.10351 1.81645 8.1035 1.98249 8.18652 2.23156C8.26954 2.48063 8.26955 2.7297 8.26955 3.06179C8.26955 3.55993 8.26955 4.05807 8.26955 4.39016C8.26955 4.80527 8.18652 5.05434 8.18652 5.3034C8.18652 5.55247 8.10351 5.71852 8.02049 5.80155C7.93747 5.96759 7.93746 6.05062 7.85443 6.05062C7.85443 6.05062 7.85443 6.13363 7.77141 6.13363C7.68838 6.13363 7.60537 6.21666 7.43932 6.21666C7.3563 6.21666 7.19026 6.13364 7.10723 6.05062C6.94119 5.9676 6.77514 5.80155 6.69212 5.6355C6.52607 5.46946 6.36002 5.22038 6.19398 4.88829C6.02793 4.5562 5.77885 4.22411 5.61281 3.72597L5.44678 3.39389C5.36375 3.22784 5.19771 2.89574 5.03166 2.48063C4.86561 2.06552 4.69956 1.73343 4.53352 1.31831C4.4505 1.15227 4.36748 1.06924 4.28446 0.986215H4.20143C4.20143 0.986215 4.1184 0.9032 4.03538 0.9032C3.95235 0.9032 3.86934 0.820172 3.78632 0.820172H0.797487C0.465395 0.820172 0.299352 0.903192 0.216329 0.986215L0.133301 1.06924C0.133301 1.06924 0.133301 1.15226 0.133301 1.23529C0.133301 1.31831 0.133306 1.40133 0.216329 1.56737C0.631443 2.56365 1.12958 3.55993 1.62772 4.5562C2.12585 5.46946 2.624 6.29969 2.95609 6.88085C3.3712 7.46201 3.70329 8.04317 4.1184 8.54131C4.53352 9.03944 4.78258 9.37153 4.8656 9.53758C5.03165 9.70362 5.11467 9.78664 5.19769 9.86967L5.44678 10.1187C5.61282 10.2848 5.86189 10.5339 6.19398 10.7829C6.52607 11.032 6.94118 11.2811 7.35629 11.5301C7.77141 11.7792 8.26956 11.9452 8.76769 12.1113C9.34885 12.2773 9.84698 12.3604 10.3451 12.2773H11.5905C11.8395 12.2773 12.0056 12.1943 12.1716 12.0283L12.2546 11.9452C12.2546 11.8622 12.3377 11.8622 12.3377 11.7792C12.3377 11.6962 12.3377 11.6132 12.3377 11.4471C12.3377 11.115 12.3377 10.8659 12.4207 10.6169C12.5037 10.3678 12.5037 10.2018 12.5868 10.0357C12.6698 9.86968 12.7528 9.78664 12.8358 9.70362C12.9188 9.6206 13.0019 9.53758 13.0019 9.53758H13.0849C13.2509 9.45456 13.5 9.53758 13.666 9.70362C13.9151 9.86967 14.1642 10.1187 14.3302 10.3678C14.4963 10.6169 14.7453 10.8659 15.0774 11.198C15.4095 11.5301 15.6586 11.7792 15.8246 11.8622L16.0737 12.0283C16.2397 12.1113 16.4058 12.1943 16.6549 12.2773C16.9039 12.3604 17.07 12.3604 17.236 12.3604L20.0588 12.2773C20.3079 12.2773 20.5569 12.1943 20.723 12.1113C20.889 12.0283 20.972 11.9452 20.972 11.7792C20.972 11.6962 20.972 11.5301 20.972 11.4471C20.806 11.2811 20.806 11.198 20.806 11.115Z" fill="white"/>
    </symbol>
    <symbol viewBox="0 0 17 17" id="footer_insta">
        <path d="M14.5808 0.000244141H2.41923C1.04615 0.000244141 0 1.0464 0 2.41948V14.581C0 15.9541 1.04615 17.0002 2.41923 17.0002H14.5808C15.9538 17.0002 17 15.9541 17 14.581V2.41948C17 1.0464 15.9538 0.000244141 14.5808 0.000244141ZM8.5 13.6002C11.3115 13.6002 13.6 11.3772 13.6 8.6964C13.6 8.2387 13.5346 7.71563 13.4038 7.32332H14.8423V14.2541C14.8423 14.581 14.5808 14.9079 14.1885 14.9079H2.81154C2.48462 14.9079 2.15769 14.6464 2.15769 14.2541V7.25794H3.66154C3.53077 7.71563 3.46539 8.17332 3.46539 8.63101C3.4 11.3772 5.68846 13.6002 8.5 13.6002ZM8.5 11.6387C6.66923 11.6387 5.23077 10.2002 5.23077 8.43486C5.23077 6.66948 6.66923 5.23101 8.5 5.23101C10.3308 5.23101 11.7692 6.66948 11.7692 8.43486C11.7692 10.2656 10.3308 11.6387 8.5 11.6387ZM14.7769 4.64255C14.7769 5.03486 14.45 5.36178 14.0577 5.36178H12.2269C11.8346 5.36178 11.5077 5.03486 11.5077 4.64255V2.87717C11.5077 2.48486 11.8346 2.15794 12.2269 2.15794H14.0577C14.45 2.15794 14.7769 2.48486 14.7769 2.87717V4.64255Z" fill="white"/>
    </symbol>
    <symbol viewBox="0 0 22 22" id="close">
        <path fill-rule="evenodd" clip-rule="evenodd" d="M20.2929 0.292894C20.6834 -0.0976306 21.3166 -0.0976306 21.7071 0.292894C22.0976 0.683418 22.0976 1.31658 21.7071 1.70711L12.4142 11L21.7071 20.2929C22.0976 20.6834 22.0976 21.3166 21.7071 21.7071C21.3166 22.0976 20.6834 22.0976 20.2929 21.7071L11 12.4142L1.7071 21.7071C1.31657 22.0976 0.683411 22.0976 0.292885 21.7071C-0.0976391 21.3166 -0.0976391 20.6834 0.292885 20.2929L9.58578 11L0.292886 1.70711C-0.0976387 1.31658 -0.0976387 0.683418 0.292886 0.292894C0.68341 -0.0976306 1.31657 -0.0976306 1.7071 0.292894L11 9.58579L20.2929 0.292894Z" fill="#111111" fill-opacity="0.5"/>
    </symbol>
</svg>
